<mxfile host="Electron" agent="Mozilla/5.0 (Windows NT 10.0; Win64; x64) AppleWebKit/537.36 (KHTML, like Gecko) draw.io/24.7.5 Chrome/126.0.6478.183 Electron/31.3.0 Safari/537.36" version="24.7.5">
  <diagram name="Page-1" id="uT3Ld9Kiim9X7538VmR-">
    <mxGraphModel dx="1615" dy="1782" grid="1" gridSize="10" guides="1" tooltips="1" connect="1" arrows="1" fold="1" page="1" pageScale="1" pageWidth="1169" pageHeight="827" math="0" shadow="0">
      <root>
        <mxCell id="0" />
        <mxCell id="1" parent="0" />
        <mxCell id="ribtpu92anh9PXgr11bW-11" value="" style="rounded=0;whiteSpace=wrap;html=1;fillColor=#dae8fc;strokeColor=#6c8ebf;strokeWidth=2;dashed=1;" vertex="1" parent="1">
          <mxGeometry x="80" y="360" width="240" height="460" as="geometry" />
        </mxCell>
        <mxCell id="UEgzTNBBbmIyngKr5W8n-33" value="" style="rounded=0;whiteSpace=wrap;html=1;dashed=1;fontStyle=0;strokeWidth=2;fillColor=#d5e8d4;strokeColor=#82b366;" parent="1" vertex="1">
          <mxGeometry x="690" y="20" width="160" height="220" as="geometry" />
        </mxCell>
        <mxCell id="UEgzTNBBbmIyngKr5W8n-11" style="edgeStyle=orthogonalEdgeStyle;rounded=0;orthogonalLoop=1;jettySize=auto;html=1;entryX=0.5;entryY=0;entryDx=0;entryDy=0;fontSize=15;fontStyle=1;strokeWidth=2;" parent="1" source="UEgzTNBBbmIyngKr5W8n-1" target="UEgzTNBBbmIyngKr5W8n-2" edge="1">
          <mxGeometry relative="1" as="geometry" />
        </mxCell>
        <mxCell id="UEgzTNBBbmIyngKr5W8n-1" value="Bắt đầu" style="ellipse;whiteSpace=wrap;html=1;fontSize=15;fontStyle=1;strokeWidth=2;" parent="1" vertex="1">
          <mxGeometry x="440" y="-10" width="120" height="80" as="geometry" />
        </mxCell>
        <mxCell id="ribtpu92anh9PXgr11bW-32" style="edgeStyle=orthogonalEdgeStyle;rounded=0;orthogonalLoop=1;jettySize=auto;html=1;entryX=0.5;entryY=0;entryDx=0;entryDy=0;strokeWidth=2;" edge="1" parent="1" source="UEgzTNBBbmIyngKr5W8n-2" target="UEgzTNBBbmIyngKr5W8n-40">
          <mxGeometry relative="1" as="geometry" />
        </mxCell>
        <mxCell id="UEgzTNBBbmIyngKr5W8n-2" value="Khởi tạo&amp;nbsp;&lt;div&gt;cấu hình ban đầu&lt;/div&gt;" style="rounded=0;whiteSpace=wrap;html=1;fontSize=15;fontStyle=1;strokeWidth=2;fillColor=#d5e8d4;strokeColor=#82b366;" parent="1" vertex="1">
          <mxGeometry x="420" y="110" width="160" height="60" as="geometry" />
        </mxCell>
        <mxCell id="UEgzTNBBbmIyngKr5W8n-19" value="Đúng" style="edgeStyle=orthogonalEdgeStyle;rounded=0;orthogonalLoop=1;jettySize=auto;html=1;fontSize=15;fontStyle=1;strokeWidth=2;labelBackgroundColor=none;exitX=1;exitY=0.5;exitDx=0;exitDy=0;" parent="1" source="UEgzTNBBbmIyngKr5W8n-3" edge="1">
          <mxGeometry x="-0.9356" y="10" relative="1" as="geometry">
            <mxPoint x="500" y="310" as="targetPoint" />
            <Array as="points">
              <mxPoint x="660" y="910" />
              <mxPoint x="660" y="310" />
              <mxPoint x="500" y="310" />
            </Array>
            <mxPoint as="offset" />
            <mxPoint x="600" y="950" as="sourcePoint" />
          </mxGeometry>
        </mxCell>
        <mxCell id="UEgzTNBBbmIyngKr5W8n-21" value="Sai" style="edgeStyle=orthogonalEdgeStyle;rounded=0;orthogonalLoop=1;jettySize=auto;html=1;fontSize=15;fontStyle=1;strokeWidth=2;labelBackgroundColor=none;" parent="1" source="UEgzTNBBbmIyngKr5W8n-3" target="UEgzTNBBbmIyngKr5W8n-20" edge="1">
          <mxGeometry y="20" relative="1" as="geometry">
            <mxPoint as="offset" />
          </mxGeometry>
        </mxCell>
        <mxCell id="UEgzTNBBbmIyngKr5W8n-3" value="frame_num &amp;lt; frame_total?" style="rhombus;whiteSpace=wrap;html=1;fontSize=15;fontStyle=1;strokeWidth=2;" parent="1" vertex="1">
          <mxGeometry x="420" y="860" width="160" height="100" as="geometry" />
        </mxCell>
        <mxCell id="UEgzTNBBbmIyngKr5W8n-13" style="edgeStyle=orthogonalEdgeStyle;rounded=0;orthogonalLoop=1;jettySize=auto;html=1;entryX=0.5;entryY=0;entryDx=0;entryDy=0;fontSize=15;fontStyle=1;strokeWidth=2;" parent="1" source="UEgzTNBBbmIyngKr5W8n-4" target="UEgzTNBBbmIyngKr5W8n-5" edge="1">
          <mxGeometry relative="1" as="geometry" />
        </mxCell>
        <mxCell id="UEgzTNBBbmIyngKr5W8n-4" value="Ghi cấu hình&amp;nbsp;&lt;div&gt;vào DMA&lt;/div&gt;" style="rounded=0;whiteSpace=wrap;html=1;fontSize=15;fontStyle=1;strokeWidth=2;fillColor=#ffe6cc;strokeColor=#d79b00;" parent="1" vertex="1">
          <mxGeometry x="420" y="330" width="160" height="60" as="geometry" />
        </mxCell>
        <mxCell id="UEgzTNBBbmIyngKr5W8n-14" style="edgeStyle=orthogonalEdgeStyle;rounded=0;orthogonalLoop=1;jettySize=auto;html=1;entryX=0.5;entryY=0;entryDx=0;entryDy=0;fontSize=15;fontStyle=1;strokeWidth=2;" parent="1" edge="1">
          <mxGeometry relative="1" as="geometry">
            <mxPoint x="499.9565217391307" y="410.0000000000001" as="sourcePoint" />
            <mxPoint x="500" y="480" as="targetPoint" />
          </mxGeometry>
        </mxCell>
        <mxCell id="UEgzTNBBbmIyngKr5W8n-5" value="Khởi động H.264" style="rounded=0;whiteSpace=wrap;html=1;fontSize=15;fontStyle=1;strokeWidth=2;" parent="1" vertex="1">
          <mxGeometry x="420" y="420" width="160" height="30" as="geometry" />
        </mxCell>
        <mxCell id="UEgzTNBBbmIyngKr5W8n-16" style="edgeStyle=orthogonalEdgeStyle;rounded=0;orthogonalLoop=1;jettySize=auto;html=1;entryX=0.5;entryY=0;entryDx=0;entryDy=0;fontSize=15;fontStyle=1;strokeWidth=2;" parent="1" source="UEgzTNBBbmIyngKr5W8n-8" target="UEgzTNBBbmIyngKr5W8n-9" edge="1">
          <mxGeometry relative="1" as="geometry" />
        </mxCell>
        <mxCell id="UEgzTNBBbmIyngKr5W8n-8" value="Đọc thanh ghi&lt;div&gt;S2MM_LENGTH&lt;br&gt;&lt;/div&gt;" style="rounded=0;whiteSpace=wrap;html=1;fontSize=15;fontStyle=1;strokeWidth=2;" parent="1" vertex="1">
          <mxGeometry x="420" y="580" width="160" height="60" as="geometry" />
        </mxCell>
        <mxCell id="UEgzTNBBbmIyngKr5W8n-17" style="edgeStyle=orthogonalEdgeStyle;rounded=0;orthogonalLoop=1;jettySize=auto;html=1;entryX=0.5;entryY=0;entryDx=0;entryDy=0;fontSize=15;fontStyle=1;strokeWidth=2;" parent="1" source="UEgzTNBBbmIyngKr5W8n-9" target="UEgzTNBBbmIyngKr5W8n-10" edge="1">
          <mxGeometry relative="1" as="geometry" />
        </mxCell>
        <mxCell id="UEgzTNBBbmIyngKr5W8n-9" value="Cập nhật địa chỉ đọc/ghi cho DMA" style="rounded=0;whiteSpace=wrap;html=1;fontSize=15;fontStyle=1;strokeWidth=2;" parent="1" vertex="1">
          <mxGeometry x="420" y="680" width="160" height="60" as="geometry" />
        </mxCell>
        <mxCell id="UEgzTNBBbmIyngKr5W8n-18" style="edgeStyle=orthogonalEdgeStyle;rounded=0;orthogonalLoop=1;jettySize=auto;html=1;entryX=0.5;entryY=0;entryDx=0;entryDy=0;fontSize=15;fontStyle=1;strokeWidth=2;" parent="1" source="UEgzTNBBbmIyngKr5W8n-10" target="UEgzTNBBbmIyngKr5W8n-3" edge="1">
          <mxGeometry relative="1" as="geometry" />
        </mxCell>
        <mxCell id="UEgzTNBBbmIyngKr5W8n-10" value="frame_num++" style="rounded=0;whiteSpace=wrap;html=1;fontSize=15;fontStyle=1;strokeWidth=2;" parent="1" vertex="1">
          <mxGeometry x="420" y="780" width="160" height="40" as="geometry" />
        </mxCell>
        <mxCell id="UEgzTNBBbmIyngKr5W8n-20" value="Kết thúc" style="ellipse;whiteSpace=wrap;html=1;fontSize=15;fontStyle=1;strokeWidth=2;" parent="1" vertex="1">
          <mxGeometry x="440" y="1000" width="120" height="80" as="geometry" />
        </mxCell>
        <mxCell id="UEgzTNBBbmIyngKr5W8n-23" value="Height" style="rounded=0;whiteSpace=wrap;html=1;fontStyle=0;strokeWidth=2;" parent="1" vertex="1">
          <mxGeometry x="710" y="80" width="120" height="20" as="geometry" />
        </mxCell>
        <mxCell id="UEgzTNBBbmIyngKr5W8n-24" value="Width" style="rounded=0;whiteSpace=wrap;html=1;fontStyle=0;strokeWidth=2;" parent="1" vertex="1">
          <mxGeometry x="710" y="100" width="120" height="20" as="geometry" />
        </mxCell>
        <mxCell id="UEgzTNBBbmIyngKr5W8n-25" value="Memory Address" style="rounded=0;whiteSpace=wrap;html=1;fontStyle=0;strokeWidth=2;" parent="1" vertex="1">
          <mxGeometry x="710" y="140" width="120" height="20" as="geometry" />
        </mxCell>
        <mxCell id="UEgzTNBBbmIyngKr5W8n-26" value="DMA Address" style="rounded=0;whiteSpace=wrap;html=1;fontStyle=0;strokeWidth=2;" parent="1" vertex="1">
          <mxGeometry x="710" y="160" width="120" height="20" as="geometry" />
        </mxCell>
        <mxCell id="UEgzTNBBbmIyngKr5W8n-27" value="H.264 Address" style="rounded=0;whiteSpace=wrap;html=1;fontStyle=0;strokeWidth=2;" parent="1" vertex="1">
          <mxGeometry x="710" y="180" width="120" height="20" as="geometry" />
        </mxCell>
        <mxCell id="UEgzTNBBbmIyngKr5W8n-28" value="Transfer length (byte)" style="rounded=0;whiteSpace=wrap;html=1;fontStyle=0;strokeWidth=2;" parent="1" vertex="1">
          <mxGeometry x="710" y="200" width="120" height="20" as="geometry" />
        </mxCell>
        <mxCell id="UEgzTNBBbmIyngKr5W8n-29" value="Number of frames" style="rounded=0;whiteSpace=wrap;html=1;fontStyle=0;strokeWidth=2;" parent="1" vertex="1">
          <mxGeometry x="710" y="40" width="120" height="20" as="geometry" />
        </mxCell>
        <mxCell id="UEgzTNBBbmIyngKr5W8n-30" value="QP" style="rounded=0;whiteSpace=wrap;html=1;fontStyle=0;strokeWidth=2;" parent="1" vertex="1">
          <mxGeometry x="710" y="60" width="120" height="20" as="geometry" />
        </mxCell>
        <mxCell id="UEgzTNBBbmIyngKr5W8n-34" value="" style="endArrow=none;html=1;rounded=0;entryX=0;entryY=0;entryDx=0;entryDy=0;exitX=1;exitY=0;exitDx=0;exitDy=0;dashed=1;fontStyle=1;strokeWidth=2;fillColor=#d5e8d4;strokeColor=#82b366;" parent="1" source="UEgzTNBBbmIyngKr5W8n-2" target="UEgzTNBBbmIyngKr5W8n-33" edge="1">
          <mxGeometry width="50" height="50" relative="1" as="geometry">
            <mxPoint x="360" y="120" as="sourcePoint" />
            <mxPoint x="410" y="70" as="targetPoint" />
          </mxGeometry>
        </mxCell>
        <mxCell id="UEgzTNBBbmIyngKr5W8n-35" value="" style="endArrow=none;html=1;rounded=0;entryX=0;entryY=1;entryDx=0;entryDy=0;exitX=1;exitY=1;exitDx=0;exitDy=0;dashed=1;fontStyle=1;strokeWidth=2;fillColor=#d5e8d4;strokeColor=#82b366;" parent="1" source="UEgzTNBBbmIyngKr5W8n-2" target="UEgzTNBBbmIyngKr5W8n-33" edge="1">
          <mxGeometry width="50" height="50" relative="1" as="geometry">
            <mxPoint x="430" y="190" as="sourcePoint" />
            <mxPoint x="390" y="90" as="targetPoint" />
          </mxGeometry>
        </mxCell>
        <mxCell id="ribtpu92anh9PXgr11bW-33" style="edgeStyle=orthogonalEdgeStyle;rounded=0;orthogonalLoop=1;jettySize=auto;html=1;entryX=0.5;entryY=0;entryDx=0;entryDy=0;strokeWidth=2;" edge="1" parent="1" source="UEgzTNBBbmIyngKr5W8n-40" target="ribtpu92anh9PXgr11bW-31">
          <mxGeometry relative="1" as="geometry" />
        </mxCell>
        <mxCell id="UEgzTNBBbmIyngKr5W8n-40" value="frame_num = 0" style="rounded=0;whiteSpace=wrap;html=1;fontSize=15;fontStyle=1;strokeWidth=2;" parent="1" vertex="1">
          <mxGeometry x="420" y="200" width="160" height="30" as="geometry" />
        </mxCell>
        <mxCell id="ribtpu92anh9PXgr11bW-1" value="MM2S_DMASR&lt;div&gt;= 0x1002?&lt;/div&gt;" style="rhombus;whiteSpace=wrap;html=1;fontSize=15;fontStyle=1;strokeWidth=2;" vertex="1" parent="1">
          <mxGeometry x="120" y="540" width="160" height="100" as="geometry" />
        </mxCell>
        <mxCell id="ribtpu92anh9PXgr11bW-6" value="Đúng" style="edgeStyle=orthogonalEdgeStyle;rounded=0;orthogonalLoop=1;jettySize=auto;html=1;entryX=0.5;entryY=0;entryDx=0;entryDy=0;fontStyle=1;strokeWidth=2;labelBackgroundColor=none;" edge="1" parent="1" source="ribtpu92anh9PXgr11bW-2" target="ribtpu92anh9PXgr11bW-1">
          <mxGeometry y="-20" relative="1" as="geometry">
            <mxPoint as="offset" />
          </mxGeometry>
        </mxCell>
        <mxCell id="ribtpu92anh9PXgr11bW-2" value="H.264&lt;div&gt;DONE_FLAG=1?&lt;/div&gt;" style="rhombus;whiteSpace=wrap;html=1;fontSize=15;fontStyle=1;strokeWidth=2;" vertex="1" parent="1">
          <mxGeometry x="120" y="400" width="160" height="100" as="geometry" />
        </mxCell>
        <mxCell id="ribtpu92anh9PXgr11bW-4" value="S2MM_DMASR&lt;div&gt;= 0x1002?&lt;/div&gt;" style="rhombus;whiteSpace=wrap;html=1;fontSize=15;fontStyle=1;strokeWidth=2;" vertex="1" parent="1">
          <mxGeometry x="120" y="680" width="160" height="100" as="geometry" />
        </mxCell>
        <mxCell id="ribtpu92anh9PXgr11bW-7" value="Đúng" style="edgeStyle=orthogonalEdgeStyle;rounded=0;orthogonalLoop=1;jettySize=auto;html=1;entryX=0.5;entryY=0;entryDx=0;entryDy=0;fontStyle=1;strokeWidth=2;labelBackgroundColor=none;" edge="1" parent="1" source="ribtpu92anh9PXgr11bW-1" target="ribtpu92anh9PXgr11bW-4">
          <mxGeometry y="-20" relative="1" as="geometry">
            <mxPoint as="offset" />
          </mxGeometry>
        </mxCell>
        <mxCell id="ribtpu92anh9PXgr11bW-8" value="Đúng" style="endArrow=classic;html=1;rounded=0;exitX=0.5;exitY=1;exitDx=0;exitDy=0;fontStyle=1;strokeWidth=2;labelBackgroundColor=none;" edge="1" parent="1" source="ribtpu92anh9PXgr11bW-4">
          <mxGeometry y="-20" width="50" height="50" relative="1" as="geometry">
            <mxPoint x="180" y="780" as="sourcePoint" />
            <mxPoint x="200" y="820" as="targetPoint" />
            <mxPoint as="offset" />
          </mxGeometry>
        </mxCell>
        <mxCell id="ribtpu92anh9PXgr11bW-9" value="" style="endArrow=classic;html=1;rounded=0;entryX=0.5;entryY=0;entryDx=0;entryDy=0;strokeWidth=2;" edge="1" parent="1" target="ribtpu92anh9PXgr11bW-2">
          <mxGeometry width="50" height="50" relative="1" as="geometry">
            <mxPoint x="200" y="360" as="sourcePoint" />
            <mxPoint x="210" y="410" as="targetPoint" />
          </mxGeometry>
        </mxCell>
        <mxCell id="ribtpu92anh9PXgr11bW-13" value="&lt;b&gt;Sai&lt;/b&gt;" style="endArrow=classic;html=1;rounded=0;exitX=1;exitY=0.5;exitDx=0;exitDy=0;labelBackgroundColor=none;strokeWidth=2;" edge="1" parent="1" source="ribtpu92anh9PXgr11bW-2">
          <mxGeometry x="-0.8947" y="-10" width="50" height="50" relative="1" as="geometry">
            <mxPoint x="230" y="430" as="sourcePoint" />
            <mxPoint x="200" y="380" as="targetPoint" />
            <Array as="points">
              <mxPoint x="300" y="450" />
              <mxPoint x="300" y="380" />
            </Array>
            <mxPoint as="offset" />
          </mxGeometry>
        </mxCell>
        <mxCell id="ribtpu92anh9PXgr11bW-14" value="&lt;b&gt;Sai&lt;/b&gt;" style="endArrow=classic;html=1;rounded=0;exitX=1;exitY=0.5;exitDx=0;exitDy=0;strokeWidth=2;labelBackgroundColor=none;" edge="1" parent="1">
          <mxGeometry x="-0.8947" y="-10" width="50" height="50" relative="1" as="geometry">
            <mxPoint x="280" y="590" as="sourcePoint" />
            <mxPoint x="200" y="520" as="targetPoint" />
            <Array as="points">
              <mxPoint x="300" y="590" />
              <mxPoint x="300" y="520" />
            </Array>
            <mxPoint as="offset" />
          </mxGeometry>
        </mxCell>
        <mxCell id="ribtpu92anh9PXgr11bW-15" value="&lt;b&gt;Sai&lt;/b&gt;" style="endArrow=classic;html=1;rounded=0;exitX=1;exitY=0.5;exitDx=0;exitDy=0;strokeWidth=2;labelBackgroundColor=none;" edge="1" parent="1">
          <mxGeometry x="-0.8947" y="-10" width="50" height="50" relative="1" as="geometry">
            <mxPoint x="280" y="730" as="sourcePoint" />
            <mxPoint x="200" y="660" as="targetPoint" />
            <Array as="points">
              <mxPoint x="300" y="730" />
              <mxPoint x="300" y="660" />
            </Array>
            <mxPoint as="offset" />
          </mxGeometry>
        </mxCell>
        <mxCell id="ribtpu92anh9PXgr11bW-17" style="edgeStyle=orthogonalEdgeStyle;rounded=0;orthogonalLoop=1;jettySize=auto;html=1;entryX=0.5;entryY=0;entryDx=0;entryDy=0;strokeWidth=2;" edge="1" parent="1" source="ribtpu92anh9PXgr11bW-16" target="UEgzTNBBbmIyngKr5W8n-8">
          <mxGeometry relative="1" as="geometry" />
        </mxCell>
        <mxCell id="ribtpu92anh9PXgr11bW-16" value="&lt;font style=&quot;font-size: 15px;&quot;&gt;&lt;b&gt;Kiểm tra trạng thái hoàn thành khối H.264 &amp;amp; DMA&lt;/b&gt;&lt;/font&gt;" style="rounded=0;whiteSpace=wrap;html=1;strokeWidth=2;fillColor=#dae8fc;strokeColor=#6c8ebf;" vertex="1" parent="1">
          <mxGeometry x="420" y="480" width="160" height="60" as="geometry" />
        </mxCell>
        <mxCell id="ribtpu92anh9PXgr11bW-18" value="" style="endArrow=none;dashed=1;html=1;rounded=0;entryX=1;entryY=0;entryDx=0;entryDy=0;exitX=0;exitY=0;exitDx=0;exitDy=0;fillColor=#dae8fc;strokeColor=#6c8ebf;strokeWidth=2;" edge="1" parent="1" source="ribtpu92anh9PXgr11bW-16" target="ribtpu92anh9PXgr11bW-11">
          <mxGeometry width="50" height="50" relative="1" as="geometry">
            <mxPoint x="360" y="500" as="sourcePoint" />
            <mxPoint x="410" y="450" as="targetPoint" />
          </mxGeometry>
        </mxCell>
        <mxCell id="ribtpu92anh9PXgr11bW-19" value="" style="endArrow=none;dashed=1;html=1;rounded=0;exitX=1;exitY=1;exitDx=0;exitDy=0;entryX=0;entryY=1;entryDx=0;entryDy=0;fillColor=#dae8fc;strokeColor=#6c8ebf;strokeWidth=2;" edge="1" parent="1" source="ribtpu92anh9PXgr11bW-11" target="ribtpu92anh9PXgr11bW-16">
          <mxGeometry width="50" height="50" relative="1" as="geometry">
            <mxPoint x="360" y="580" as="sourcePoint" />
            <mxPoint x="410" y="530" as="targetPoint" />
          </mxGeometry>
        </mxCell>
        <mxCell id="ribtpu92anh9PXgr11bW-20" value="" style="rounded=0;whiteSpace=wrap;html=1;dashed=1;fontStyle=0;strokeWidth=2;fillColor=#ffe6cc;strokeColor=#d79b00;" vertex="1" parent="1">
          <mxGeometry x="690" y="280" width="160" height="140" as="geometry" />
        </mxCell>
        <mxCell id="ribtpu92anh9PXgr11bW-23" value="Địa chỉ memory ghi" style="rounded=0;whiteSpace=wrap;html=1;fontStyle=0;strokeWidth=2;" vertex="1" parent="1">
          <mxGeometry x="710" y="360" width="120" height="20" as="geometry" />
        </mxCell>
        <mxCell id="ribtpu92anh9PXgr11bW-24" value="Số byte ghi" style="rounded=0;whiteSpace=wrap;html=1;fontStyle=0;strokeWidth=2;" vertex="1" parent="1">
          <mxGeometry x="710" y="380" width="120" height="20" as="geometry" />
        </mxCell>
        <mxCell id="ribtpu92anh9PXgr11bW-27" value="Địa chỉ memory đọc" style="rounded=0;whiteSpace=wrap;html=1;fontStyle=0;strokeWidth=2;" vertex="1" parent="1">
          <mxGeometry x="710" y="300" width="120" height="20" as="geometry" />
        </mxCell>
        <mxCell id="ribtpu92anh9PXgr11bW-28" value="Số byte đọc" style="rounded=0;whiteSpace=wrap;html=1;fontStyle=0;strokeWidth=2;" vertex="1" parent="1">
          <mxGeometry x="710" y="320" width="120" height="20" as="geometry" />
        </mxCell>
        <mxCell id="ribtpu92anh9PXgr11bW-29" value="" style="endArrow=none;html=1;rounded=0;entryX=0;entryY=0;entryDx=0;entryDy=0;exitX=1;exitY=0;exitDx=0;exitDy=0;dashed=1;fontStyle=1;strokeWidth=2;fillColor=#ffe6cc;strokeColor=#d79b00;" edge="1" parent="1" target="ribtpu92anh9PXgr11bW-20" source="UEgzTNBBbmIyngKr5W8n-4">
          <mxGeometry width="50" height="50" relative="1" as="geometry">
            <mxPoint x="580" y="380" as="sourcePoint" />
            <mxPoint x="410" y="330" as="targetPoint" />
          </mxGeometry>
        </mxCell>
        <mxCell id="ribtpu92anh9PXgr11bW-30" value="" style="endArrow=none;html=1;rounded=0;entryX=0;entryY=1;entryDx=0;entryDy=0;exitX=1;exitY=1;exitDx=0;exitDy=0;dashed=1;fontStyle=1;strokeWidth=2;fillColor=#ffe6cc;strokeColor=#d79b00;" edge="1" parent="1" target="ribtpu92anh9PXgr11bW-20" source="UEgzTNBBbmIyngKr5W8n-4">
          <mxGeometry width="50" height="50" relative="1" as="geometry">
            <mxPoint x="580" y="440" as="sourcePoint" />
            <mxPoint x="390" y="350" as="targetPoint" />
          </mxGeometry>
        </mxCell>
        <mxCell id="ribtpu92anh9PXgr11bW-34" style="edgeStyle=orthogonalEdgeStyle;rounded=0;orthogonalLoop=1;jettySize=auto;html=1;entryX=0.5;entryY=0;entryDx=0;entryDy=0;strokeWidth=2;" edge="1" parent="1" source="ribtpu92anh9PXgr11bW-31" target="UEgzTNBBbmIyngKr5W8n-4">
          <mxGeometry relative="1" as="geometry" />
        </mxCell>
        <mxCell id="ribtpu92anh9PXgr11bW-31" value="Khởi động DMA" style="rounded=0;whiteSpace=wrap;html=1;fontSize=15;fontStyle=1;strokeWidth=2;" vertex="1" parent="1">
          <mxGeometry x="420" y="260" width="160" height="30" as="geometry" />
        </mxCell>
      </root>
    </mxGraphModel>
  </diagram>
</mxfile>
